<mxfile host="65bd71144e">
    <diagram id="J7m0HLziaFzGGJ3oxKKx" name="Page-1">
        <mxGraphModel dx="4550" dy="2775" grid="1" gridSize="10" guides="1" tooltips="1" connect="1" arrows="1" fold="1" page="1" pageScale="5" pageWidth="827" pageHeight="1169" math="0" shadow="0">
            <root>
                <mxCell id="0"/>
                <mxCell id="1" parent="0"/>
                <mxCell id="2" value="Recipe" style="swimlane;fontStyle=1;align=center;verticalAlign=top;childLayout=stackLayout;horizontal=1;startSize=26;horizontalStack=0;resizeParent=1;resizeParentMax=0;resizeLast=0;collapsible=1;marginBottom=0;" parent="1" vertex="1">
                    <mxGeometry x="1943" y="3213" width="360" height="270" as="geometry"/>
                </mxCell>
                <mxCell id="3" value="- name: str&#10;- ingredients: dict[str, int]" style="text;strokeColor=none;fillColor=none;align=left;verticalAlign=top;spacingLeft=4;spacingRight=4;overflow=hidden;rotatable=0;points=[[0,0.5],[1,0.5]];portConstraint=eastwest;" parent="2" vertex="1">
                    <mxGeometry y="26" width="360" height="44" as="geometry"/>
                </mxCell>
                <mxCell id="4" value="" style="line;strokeWidth=1;fillColor=none;align=left;verticalAlign=middle;spacingTop=-1;spacingLeft=3;spacingRight=3;rotatable=0;labelPosition=right;points=[];portConstraint=eastwest;strokeColor=inherit;" parent="2" vertex="1">
                    <mxGeometry y="70" width="360" height="8" as="geometry"/>
                </mxCell>
                <mxCell id="5" value="+ __int__(self,name): None&#10;+ __str__(self)&#10;+ __repr__(self)&#10;+ __eq__(self,value)&#10;+ display(self): None&#10;+ convert_to_dict_for_db(self): dict&#10;+ get_ingredient_name(self): str&#10;+ remove_ingredient_quantity_in_db(self,db): None&#10;+ add_ingredient_quantity_in_db(self,ab): None&#10;+ remove_ingredient(self,Ingredient): bool&#10;+ add_ingredient(self,Ingre_name,quantity):bool&#10;+ remove_all_ingredient(self): None" style="text;strokeColor=none;fillColor=none;align=left;verticalAlign=top;spacingLeft=4;spacingRight=4;overflow=hidden;rotatable=0;points=[[0,0.5],[1,0.5]];portConstraint=eastwest;" parent="2" vertex="1">
                    <mxGeometry y="78" width="360" height="192" as="geometry"/>
                </mxCell>
                <mxCell id="10" value="Display(Abstract)" style="swimlane;fontStyle=0;childLayout=stackLayout;horizontal=1;startSize=26;fillColor=none;horizontalStack=0;resizeParent=1;resizeParentMax=0;resizeLast=0;collapsible=1;marginBottom=0;" parent="1" vertex="1">
                    <mxGeometry x="3427" y="2943" width="140" height="52" as="geometry"/>
                </mxCell>
                <mxCell id="12" value="+ display(self)" style="text;strokeColor=none;fillColor=none;align=left;verticalAlign=top;spacingLeft=4;spacingRight=4;overflow=hidden;rotatable=0;points=[[0,0.5],[1,0.5]];portConstraint=eastwest;" parent="10" vertex="1">
                    <mxGeometry y="26" width="140" height="26" as="geometry"/>
                </mxCell>
                <mxCell id="14" value="Ingredient" style="swimlane;fontStyle=1;align=center;verticalAlign=top;childLayout=stackLayout;horizontal=1;startSize=26;horizontalStack=0;resizeParent=1;resizeParentMax=0;resizeLast=0;collapsible=1;marginBottom=0;" parent="1" vertex="1">
                    <mxGeometry x="1933" y="2088" width="380" height="280" as="geometry"/>
                </mxCell>
                <mxCell id="15" value="- name: str&#10;- quantity: int&#10;- unit: str&#10;- reorder_level: int&#10;- category: IngredientCategory" style="text;strokeColor=none;fillColor=none;align=left;verticalAlign=top;spacingLeft=4;spacingRight=4;overflow=hidden;rotatable=0;points=[[0,0.5],[1,0.5]];portConstraint=eastwest;" parent="14" vertex="1">
                    <mxGeometry y="26" width="380" height="84" as="geometry"/>
                </mxCell>
                <mxCell id="16" value="" style="line;strokeWidth=1;fillColor=none;align=left;verticalAlign=middle;spacingTop=-1;spacingLeft=3;spacingRight=3;rotatable=0;labelPosition=right;points=[];portConstraint=eastwest;strokeColor=inherit;" parent="14" vertex="1">
                    <mxGeometry y="110" width="380" height="8" as="geometry"/>
                </mxCell>
                <mxCell id="17" value="+ __int__(self,name,quantity,unit,reorder_level,category)&#10;+ __str__(self)&#10;+ __repr__(self)&#10;+ __eq__(self,value)&#10;+ display(self): None&#10;+ update_quantity(self,new_quantity): None&#10;+ update_price(self,new_price): None&#10;+ add_quantity(self,newQuantity): None&#10;+ remove_quantity(self,newQuantity): None&#10;+ convert_to_dict_for_db(self): dict" style="text;strokeColor=none;fillColor=none;align=left;verticalAlign=top;spacingLeft=4;spacingRight=4;overflow=hidden;rotatable=0;points=[[0,0.5],[1,0.5]];portConstraint=eastwest;" parent="14" vertex="1">
                    <mxGeometry y="118" width="380" height="162" as="geometry"/>
                </mxCell>
                <mxCell id="25" value="Extends" style="endArrow=block;endSize=16;endFill=0;html=1;exitX=1.004;exitY=0.878;exitDx=0;exitDy=0;exitPerimeter=0;edgeStyle=orthogonalEdgeStyle;elbow=vertical;" parent="1" source="17" target="10" edge="1">
                    <mxGeometry x="-0.0058" width="160" relative="1" as="geometry">
                        <mxPoint x="2245.76" y="2345.6440000000002" as="sourcePoint"/>
                        <mxPoint x="1700.589519650655" y="1133" as="targetPoint"/>
                        <mxPoint x="-1" as="offset"/>
                    </mxGeometry>
                </mxCell>
                <mxCell id="26" value="Extends" style="endArrow=block;endSize=16;endFill=0;html=1;entryX=0.228;entryY=1.147;entryDx=0;entryDy=0;entryPerimeter=0;exitX=1.001;exitY=0.055;exitDx=0;exitDy=0;exitPerimeter=0;" parent="1" source="2" target="12" edge="1">
                    <mxGeometry width="160" relative="1" as="geometry">
                        <mxPoint x="2298" y="3223" as="sourcePoint"/>
                        <mxPoint x="1907.2369477911645" y="1094" as="targetPoint"/>
                        <Array as="points">
                            <mxPoint x="3458" y="3230"/>
                        </Array>
                    </mxGeometry>
                </mxCell>
                <mxCell id="27" value="IngredientCategory(Enum)" style="swimlane;fontStyle=0;childLayout=stackLayout;horizontal=1;startSize=26;fillColor=none;horizontalStack=0;resizeParent=1;resizeParentMax=0;resizeLast=0;collapsible=1;marginBottom=0;" parent="1" vertex="1">
                    <mxGeometry x="1718" y="2033" width="170" height="70" as="geometry"/>
                </mxCell>
                <mxCell id="28" value="- TOPING: &quot;toping&quot;&#10;- BASE: &quot;base&quot;" style="text;strokeColor=none;fillColor=none;align=left;verticalAlign=top;spacingLeft=4;spacingRight=4;overflow=hidden;rotatable=0;points=[[0,0.5],[1,0.5]];portConstraint=eastwest;" parent="27" vertex="1">
                    <mxGeometry y="26" width="170" height="44" as="geometry"/>
                </mxCell>
                <mxCell id="29" value="SideDishCategory(Enum)" style="swimlane;fontStyle=0;childLayout=stackLayout;horizontal=1;startSize=26;fillColor=none;horizontalStack=0;resizeParent=1;resizeParentMax=0;resizeLast=0;collapsible=1;marginBottom=0;" parent="1" vertex="1">
                    <mxGeometry x="1718" y="2308" width="170" height="80" as="geometry"/>
                </mxCell>
                <mxCell id="30" value="- APPETIZERS = &quot;appetizers&quot;&#10;- DESSERTS = &quot;desserts&quot;&#10;- BEVERAGES = &quot;beverages&quot;" style="text;strokeColor=none;fillColor=none;align=left;verticalAlign=top;spacingLeft=4;spacingRight=4;overflow=hidden;rotatable=0;points=[[0,0.5],[1,0.5]];portConstraint=eastwest;" parent="29" vertex="1">
                    <mxGeometry y="26" width="170" height="54" as="geometry"/>
                </mxCell>
                <mxCell id="32" value="PizzaCategory(Enum)" style="swimlane;fontStyle=0;childLayout=stackLayout;horizontal=1;startSize=26;fillColor=none;horizontalStack=0;resizeParent=1;resizeParentMax=0;resizeLast=0;collapsible=1;marginBottom=0;" parent="1" vertex="1">
                    <mxGeometry x="1703" y="3533" width="200" height="80" as="geometry"/>
                </mxCell>
                <mxCell id="33" value="- VEGETARIAN = &quot;vegetarian&quot;&#10;- MEAT_LOVERS = &quot;meat lovers&quot;&#10;- SPECIALTY = &quot;specialty&quot;" style="text;strokeColor=none;fillColor=none;align=left;verticalAlign=top;spacingLeft=4;spacingRight=4;overflow=hidden;rotatable=0;points=[[0,0.5],[1,0.5]];portConstraint=eastwest;" parent="32" vertex="1">
                    <mxGeometry y="26" width="200" height="54" as="geometry"/>
                </mxCell>
                <mxCell id="34" value="PizzaSize(Enum)" style="swimlane;fontStyle=0;childLayout=stackLayout;horizontal=1;startSize=26;fillColor=none;horizontalStack=0;resizeParent=1;resizeParentMax=0;resizeLast=0;collapsible=1;marginBottom=0;" parent="1" vertex="1">
                    <mxGeometry x="1703" y="3383" width="200" height="100" as="geometry"/>
                </mxCell>
                <mxCell id="35" value="- SMALL = &quot;Small&quot;&#10;- MEDIUM = &quot;Medium&quot;&#10;- LARGE = &quot;Large&quot;&#10;- EXTRA_LARGE = &quot;Extra_Large&quot;" style="text;strokeColor=none;fillColor=none;align=left;verticalAlign=top;spacingLeft=4;spacingRight=4;overflow=hidden;rotatable=0;points=[[0,0.5],[1,0.5]];portConstraint=eastwest;fontStyle=0" parent="34" vertex="1">
                    <mxGeometry y="26" width="200" height="74" as="geometry"/>
                </mxCell>
                <mxCell id="71" value="Pizza" style="swimlane;fontStyle=1;align=center;verticalAlign=top;childLayout=stackLayout;horizontal=1;startSize=26;horizontalStack=0;resizeParent=1;resizeParentMax=0;resizeLast=0;collapsible=1;marginBottom=0;" parent="1" vertex="1">
                    <mxGeometry x="1943" y="3543" width="360" height="270" as="geometry"/>
                </mxCell>
                <mxCell id="72" value="- name: str&#10;- description: str&#10;- basePrice: float&#10;- size: PizzaSize&#10;- recipe: str&#10;- category: PizzaCategory" style="text;strokeColor=none;fillColor=none;align=left;verticalAlign=top;spacingLeft=4;spacingRight=4;overflow=hidden;rotatable=0;points=[[0,0.5],[1,0.5]];portConstraint=eastwest;" parent="71" vertex="1">
                    <mxGeometry y="26" width="360" height="94" as="geometry"/>
                </mxCell>
                <mxCell id="73" value="" style="line;strokeWidth=1;fillColor=none;align=left;verticalAlign=middle;spacingTop=-1;spacingLeft=3;spacingRight=3;rotatable=0;labelPosition=right;points=[];portConstraint=eastwest;strokeColor=inherit;" parent="71" vertex="1">
                    <mxGeometry y="120" width="360" height="8" as="geometry"/>
                </mxCell>
                <mxCell id="74" value="+ __int__(self,name): None&#10;+ __str__(self)&#10;+ __repr__(self)&#10;+ __eq__(self,value)&#10;+ display(self): None&#10;+ convert_to_dict_for_db(self): dict&#10;+ get_price_based_on_size(self): float&#10;+ check_by_category(self,category): bool&#10;+ convert_to_dict_for_db(self): dict&#10;" style="text;strokeColor=none;fillColor=none;align=left;verticalAlign=top;spacingLeft=4;spacingRight=4;overflow=hidden;rotatable=0;points=[[0,0.5],[1,0.5]];portConstraint=eastwest;" parent="71" vertex="1">
                    <mxGeometry y="128" width="360" height="142" as="geometry"/>
                </mxCell>
                <mxCell id="83" value="Order" style="swimlane;fontStyle=1;align=center;verticalAlign=top;childLayout=stackLayout;horizontal=1;startSize=26;horizontalStack=0;resizeParent=1;resizeParentMax=0;resizeLast=0;collapsible=1;marginBottom=0;" parent="1" vertex="1">
                    <mxGeometry x="1928" y="2808" width="390" height="320" as="geometry"/>
                </mxCell>
                <mxCell id="84" value="- order_id: int&#10;- name: str&#10;- email: str&#10;- phone_no: str&#10;- compony: str&#10;- date: str&#10;- time: str" style="text;strokeColor=none;fillColor=none;align=left;verticalAlign=top;spacingLeft=4;spacingRight=4;overflow=hidden;rotatable=0;points=[[0,0.5],[1,0.5]];portConstraint=eastwest;" parent="83" vertex="1">
                    <mxGeometry y="26" width="390" height="114" as="geometry"/>
                </mxCell>
                <mxCell id="85" value="" style="line;strokeWidth=1;fillColor=none;align=left;verticalAlign=middle;spacingTop=-1;spacingLeft=3;spacingRight=3;rotatable=0;labelPosition=right;points=[];portConstraint=eastwest;strokeColor=inherit;" parent="83" vertex="1">
                    <mxGeometry y="140" width="390" height="8" as="geometry"/>
                </mxCell>
                <mxCell id="86" value="+ __int__(self,order_id,name,email,phone_no,compony,date,time)&#10;+ __str__(self)&#10;+ __repr__(self)&#10;+ display(self): None&#10;+ convert_to_dict_for_db(self): dict&#10;+ find_order_pizza_index(self,item): None&#10;+ add_remove_pizza_order(self,item,quantity): None&#10;+ find_order_side_dish_index(self,item_name): None&#10;+ find_order_side_dish_index(self,item_name): None&#10;+ remove_side_dish_in_order(self,item_name,quantity): None&#10;+ get_total_price(self): float" style="text;strokeColor=none;fillColor=none;align=left;verticalAlign=top;spacingLeft=4;spacingRight=4;overflow=hidden;rotatable=0;points=[[0,0.5],[1,0.5]];portConstraint=eastwest;" parent="83" vertex="1">
                    <mxGeometry y="148" width="390" height="172" as="geometry"/>
                </mxCell>
                <mxCell id="95" value="Repository(Abstract)" style="swimlane;fontStyle=1;childLayout=stackLayout;horizontal=1;startSize=26;fillColor=none;horizontalStack=0;resizeParent=1;resizeParentMax=0;resizeLast=0;collapsible=1;marginBottom=0;" parent="1" vertex="1">
                    <mxGeometry x="3158" y="2928" width="180" height="80" as="geometry"/>
                </mxCell>
                <mxCell id="96" value="+ create_file(self): None&#10;+ save_items(self,items): None&#10;+ get_items(self)" style="text;strokeColor=none;fillColor=none;align=left;verticalAlign=top;spacingLeft=4;spacingRight=4;overflow=hidden;rotatable=0;points=[[0,0.5],[1,0.5]];portConstraint=eastwest;" parent="95" vertex="1">
                    <mxGeometry y="26" width="180" height="54" as="geometry"/>
                </mxCell>
                <mxCell id="98" value="Extends" style="endArrow=block;endSize=16;endFill=0;html=1;exitX=1;exitY=0.5;exitDx=0;exitDy=0;entryX=0;entryY=0;entryDx=0;entryDy=0;" parent="1" source="163" target="95" edge="1">
                    <mxGeometry width="160" relative="1" as="geometry">
                        <mxPoint x="2897" y="2530" as="sourcePoint"/>
                        <mxPoint x="1877" y="2327.554545454546" as="targetPoint"/>
                        <Array as="points">
                            <mxPoint x="3157" y="2530"/>
                        </Array>
                    </mxGeometry>
                </mxCell>
                <mxCell id="100" value="Extends" style="endArrow=block;endSize=16;endFill=0;html=1;entryX=0.25;entryY=1;entryDx=0;entryDy=0;exitX=1;exitY=0.25;exitDx=0;exitDy=0;" parent="1" target="95" edge="1">
                    <mxGeometry width="160" relative="1" as="geometry">
                        <mxPoint x="2897.0000000000005" y="3305.5" as="sourcePoint"/>
                        <mxPoint x="3347" y="2773" as="targetPoint"/>
                        <Array as="points">
                            <mxPoint x="3207" y="3306"/>
                        </Array>
                    </mxGeometry>
                </mxCell>
                <mxCell id="101" value="Extends" style="endArrow=block;endSize=16;endFill=0;html=1;startArrow=none;exitX=1;exitY=0.5;exitDx=0;exitDy=0;entryX=0.25;entryY=0;entryDx=0;entryDy=0;" parent="1" source="159" target="95" edge="1">
                    <mxGeometry x="-0.264" width="160" relative="1" as="geometry">
                        <mxPoint x="2897" y="2191" as="sourcePoint"/>
                        <mxPoint x="1994.009646302251" y="2313" as="targetPoint"/>
                        <Array as="points">
                            <mxPoint x="3203" y="2166"/>
                        </Array>
                        <mxPoint as="offset"/>
                    </mxGeometry>
                </mxCell>
                <mxCell id="102" value="Extends" style="endArrow=block;endSize=16;endFill=0;html=1;exitX=1.004;exitY=0.051;exitDx=0;exitDy=0;entryX=0;entryY=0;entryDx=0;entryDy=0;exitPerimeter=0;" parent="1" source="83" target="10" edge="1">
                    <mxGeometry width="160" relative="1" as="geometry">
                        <mxPoint x="2250.7799999999997" y="2820.16" as="sourcePoint"/>
                        <mxPoint x="2029.3980582524277" y="814" as="targetPoint"/>
                        <Array as="points">
                            <mxPoint x="3427" y="2823"/>
                        </Array>
                    </mxGeometry>
                </mxCell>
                <mxCell id="103" value="Extends" style="endArrow=block;endSize=16;endFill=0;html=1;entryX=0.25;entryY=0;entryDx=0;entryDy=0;exitX=1.001;exitY=0.057;exitDx=0;exitDy=0;exitPerimeter=0;" parent="1" source="59" target="10" edge="1">
                    <mxGeometry width="160" relative="1" as="geometry">
                        <mxPoint x="2249.6099999999997" y="2451.56" as="sourcePoint"/>
                        <mxPoint x="1986.299065420561" y="814" as="targetPoint"/>
                        <Array as="points">
                            <mxPoint x="3462" y="2453"/>
                        </Array>
                    </mxGeometry>
                </mxCell>
                <mxCell id="104" value="Extends" style="endArrow=block;endSize=16;endFill=0;html=1;entryX=0.413;entryY=1.034;entryDx=0;entryDy=0;entryPerimeter=0;exitX=1.001;exitY=0.061;exitDx=0;exitDy=0;exitPerimeter=0;" parent="1" source="71" target="12" edge="1">
                    <mxGeometry width="160" relative="1" as="geometry">
                        <mxPoint x="2235.7200000000003" y="3558.66" as="sourcePoint"/>
                        <mxPoint x="2007.8217821782182" y="814" as="targetPoint"/>
                        <Array as="points">
                            <mxPoint x="3485" y="3559"/>
                        </Array>
                    </mxGeometry>
                </mxCell>
                <mxCell id="107" value="Use" style="endArrow=open;endSize=12;dashed=1;html=1;entryX=1.001;entryY=0.056;entryDx=0;entryDy=0;entryPerimeter=0;" parent="1" target="86" edge="1">
                    <mxGeometry width="160" relative="1" as="geometry">
                        <mxPoint x="2517" y="2966.8422325725023" as="sourcePoint"/>
                        <mxPoint x="2250" y="2968" as="targetPoint"/>
                    </mxGeometry>
                </mxCell>
                <mxCell id="108" value="Use" style="endArrow=open;endSize=12;dashed=1;html=1;entryX=1;entryY=0.015;entryDx=0;entryDy=0;entryPerimeter=0;exitX=0.001;exitY=0.13;exitDx=0;exitDy=0;exitPerimeter=0;" parent="1" source="165" target="62" edge="1">
                    <mxGeometry width="160" relative="1" as="geometry">
                        <mxPoint x="2517" y="2566.990231362468" as="sourcePoint"/>
                        <mxPoint x="2250" y="2567" as="targetPoint"/>
                    </mxGeometry>
                </mxCell>
                <mxCell id="109" value="Use" style="endArrow=open;endSize=12;dashed=1;html=1;entryX=0.996;entryY=0.655;entryDx=0;entryDy=0;exitX=0;exitY=0.5;exitDx=0;exitDy=0;entryPerimeter=0;" parent="1" source="159" target="15" edge="1">
                    <mxGeometry width="160" relative="1" as="geometry">
                        <mxPoint x="2514.72" y="2163.6800000000003" as="sourcePoint"/>
                        <mxPoint x="2245" y="2228" as="targetPoint"/>
                    </mxGeometry>
                </mxCell>
                <mxCell id="110" value="Use" style="endArrow=open;endSize=12;dashed=1;html=1;entryX=0.999;entryY=0.262;entryDx=0;entryDy=0;entryPerimeter=0;" parent="1" target="5" edge="1">
                    <mxGeometry width="160" relative="1" as="geometry">
                        <mxPoint x="2517.0000000000005" y="3342.20308635869" as="sourcePoint"/>
                        <mxPoint x="2235" y="3346.7586206896553" as="targetPoint"/>
                    </mxGeometry>
                </mxCell>
                <mxCell id="111" value="Use" style="endArrow=open;endSize=12;dashed=1;html=1;entryX=0.998;entryY=0.042;entryDx=0;entryDy=0;entryPerimeter=0;" parent="1" target="74" edge="1">
                    <mxGeometry width="160" relative="1" as="geometry">
                        <mxPoint x="2517.0000000000005" y="3677.5136390591024" as="sourcePoint"/>
                        <mxPoint x="2235" y="3678" as="targetPoint"/>
                    </mxGeometry>
                </mxCell>
                <mxCell id="112" value="PizzaApp" style="swimlane;fontStyle=1;align=center;verticalAlign=top;childLayout=stackLayout;horizontal=1;startSize=26;horizontalStack=0;resizeParent=1;resizeParentMax=0;resizeLast=0;collapsible=1;marginBottom=0;" parent="1" vertex="1">
                    <mxGeometry x="540" y="2713" width="418" height="550" as="geometry"/>
                </mxCell>
                <mxCell id="113" value="- ingredientManager: IngredientManager&#10;- sideDishManager: SideDishManager&#10;- recipeManager: RecipeManager&#10;- pizzaManager: PizzaManager&#10;- orderManager: OrderManager" style="text;strokeColor=none;fillColor=none;align=left;verticalAlign=top;spacingLeft=4;spacingRight=4;overflow=hidden;rotatable=0;points=[[0,0.5],[1,0.5]];portConstraint=eastwest;" parent="112" vertex="1">
                    <mxGeometry y="26" width="418" height="84" as="geometry"/>
                </mxCell>
                <mxCell id="114" value="" style="line;strokeWidth=1;fillColor=none;align=left;verticalAlign=middle;spacingTop=-1;spacingLeft=3;spacingRight=3;rotatable=0;labelPosition=right;points=[];portConstraint=eastwest;strokeColor=inherit;" parent="112" vertex="1">
                    <mxGeometry y="110" width="418" height="8" as="geometry"/>
                </mxCell>
                <mxCell id="115" value="+ __int__(self)&#10;+ show_program_title(self): None&#10;+ process_command(self,command): bool&#10;+ show_Menu_Ingredient_Management(self): None&#10;+ get_ingredient_category(self): IngredientCategory&#10;+ createIngredient(self): Ingredient|None&#10;+ add_remove_ingredient_quantity_by_name(self,for_add_Quantity): None&#10;+ delete_ingredient_by_name(self): None&#10;+ show_Menu_SideDish_Management(self): None&#10;+ get_sideDish_category(self): SideDishesCategory&#10;+ createSideDish(self): SideDish|None&#10;+ add_remove_sideDish_quantity_by_name(self,for_add_Quantity): None&#10;+ delete_sideDish_by_name(self): None&#10;+ show_Recipe_Management(self): None&#10;+ addIngredientInRecipe(self,recipe): Recipe | None&#10;+ createRecipe(self): Recipe|None&#10;+ delete_recipe_by_name(self): None&#10;+ ingredient_list_for_recipe_update(self,recipe): dict[str,int]&#10;+ update_Recipe(self): None&#10;+ show_Pizza_Management(self): None&#10;+ get_pizza_size(self): PizzaSize&#10;+ get_recipe_for_pizza(self): str&#10;+ get_category_for_pizza(self): PizzaCategory&#10;+ createPizza(self,isForCustom): Pizza | None&#10;+ deletePizza(self): None&#10;+ show_Order_Management(self): None&#10;+ get_sideDish_for_Order(self): dict[str,int]&#10;+ get_pizza_for_order(self): list[tuple[Pizza,int]]&#10;+ get_custom_pizza_for_order(self): list[tuple[Pizza,int]]&#10;+ createOrder(self): Order|None" style="text;strokeColor=none;fillColor=none;align=left;verticalAlign=top;spacingLeft=4;spacingRight=4;overflow=hidden;rotatable=0;points=[[0,0.5],[1,0.5]];portConstraint=eastwest;" parent="112" vertex="1">
                    <mxGeometry y="118" width="418" height="432" as="geometry"/>
                </mxCell>
                <mxCell id="116" value="" style="endArrow=diamondThin;endFill=0;endSize=24;html=1;fontStyle=1;entryX=1.001;entryY=0.093;entryDx=0;entryDy=0;entryPerimeter=0;" parent="1" source="83" target="149" edge="1">
                    <mxGeometry width="160" relative="1" as="geometry">
                        <mxPoint x="1128" y="1453" as="sourcePoint"/>
                        <mxPoint x="1748" y="2968" as="targetPoint"/>
                    </mxGeometry>
                </mxCell>
                <mxCell id="117" value="" style="endArrow=diamondThin;endFill=0;endSize=24;html=1;fontStyle=1;entryX=1.001;entryY=0.296;entryDx=0;entryDy=0;entryPerimeter=0;" parent="1" source="59" target="145" edge="1">
                    <mxGeometry width="160" relative="1" as="geometry">
                        <mxPoint x="990.1657754010696" y="1483" as="sourcePoint"/>
                        <mxPoint x="1748" y="2567" as="targetPoint"/>
                    </mxGeometry>
                </mxCell>
                <mxCell id="119" value="" style="endArrow=diamondThin;endFill=0;endSize=24;html=1;fontStyle=1;entryX=1;entryY=0.273;entryDx=0;entryDy=0;entryPerimeter=0;" parent="1" source="2" target="153" edge="1">
                    <mxGeometry width="160" relative="1" as="geometry">
                        <mxPoint x="1898" y="1443" as="sourcePoint"/>
                        <mxPoint x="1678" y="3348" as="targetPoint"/>
                    </mxGeometry>
                </mxCell>
                <mxCell id="120" value="" style="endArrow=diamondThin;endFill=0;endSize=24;html=1;fontStyle=1;entryX=1.006;entryY=0.286;entryDx=0;entryDy=0;entryPerimeter=0;" parent="1" source="71" target="157" edge="1">
                    <mxGeometry width="160" relative="1" as="geometry">
                        <mxPoint x="2311.5620052770446" y="1433" as="sourcePoint"/>
                        <mxPoint x="1668" y="3677.9999999999995" as="targetPoint"/>
                    </mxGeometry>
                </mxCell>
                <mxCell id="59" value="SideDish" style="swimlane;fontStyle=1;align=center;verticalAlign=top;childLayout=stackLayout;horizontal=1;startSize=26;horizontalStack=0;resizeParent=1;resizeParentMax=0;resizeLast=0;collapsible=1;marginBottom=0;" parent="1" vertex="1">
                    <mxGeometry x="1928" y="2437" width="390" height="260" as="geometry"/>
                </mxCell>
                <mxCell id="60" value="- name: str&#10;- quantity: int&#10;- description: str&#10;- price: float&#10;- reorder_level: int&#10;- category: SiDi" style="text;strokeColor=none;fillColor=none;align=left;verticalAlign=top;spacingLeft=4;spacingRight=4;overflow=hidden;rotatable=0;points=[[0,0.5],[1,0.5]];portConstraint=eastwest;" parent="59" vertex="1">
                    <mxGeometry y="26" width="390" height="94" as="geometry"/>
                </mxCell>
                <mxCell id="61" value="" style="line;strokeWidth=1;fillColor=none;align=left;verticalAlign=middle;spacingTop=-1;spacingLeft=3;spacingRight=3;rotatable=0;labelPosition=right;points=[];portConstraint=eastwest;strokeColor=inherit;" parent="59" vertex="1">
                    <mxGeometry y="120" width="390" height="8" as="geometry"/>
                </mxCell>
                <mxCell id="62" value="+ __int__(self,name,quantity,description,price,reorder_level,category)&#10;+ __str__(self)&#10;+ __repr__(self)&#10;+ __eq__(self,value)&#10;+ display(self): None&#10;+ addQuantity(self,quantity): None&#10;+ removeQuantity(self,quantity): None&#10;+ convert_to_dict_for_db(self): dict" style="text;strokeColor=none;fillColor=none;align=left;verticalAlign=top;spacingLeft=4;spacingRight=4;overflow=hidden;rotatable=0;points=[[0,0.5],[1,0.5]];portConstraint=eastwest;" parent="59" vertex="1">
                    <mxGeometry y="128" width="390" height="132" as="geometry"/>
                </mxCell>
                <mxCell id="124" value="Extends" style="endArrow=block;endSize=16;endFill=0;html=1;entryX=0;entryY=0;entryDx=0;entryDy=0;exitX=0.999;exitY=0.383;exitDx=0;exitDy=0;exitPerimeter=0;" parent="1" target="95" edge="1">
                    <mxGeometry width="160" relative="1" as="geometry">
                        <mxPoint x="2896.62" y="2927.022" as="sourcePoint"/>
                        <mxPoint x="3317" y="2721.3478260869565" as="targetPoint"/>
                        <Array as="points"/>
                    </mxGeometry>
                </mxCell>
                <mxCell id="125" value="Extends" style="endArrow=block;endSize=16;endFill=0;html=1;entryX=0.5;entryY=1;entryDx=0;entryDy=0;" parent="1" source="176" target="95" edge="1">
                    <mxGeometry width="160" relative="1" as="geometry">
                        <mxPoint x="2897.0000000000005" y="3638" as="sourcePoint"/>
                        <mxPoint x="3317" y="2773.6521739130435" as="targetPoint"/>
                        <Array as="points">
                            <mxPoint x="3248" y="3638"/>
                        </Array>
                    </mxGeometry>
                </mxCell>
                <mxCell id="127" value="Use" style="endArrow=open;endSize=12;dashed=1;html=1;entryX=0.643;entryY=1.024;entryDx=0;entryDy=0;exitX=0.001;exitY=0.868;exitDx=0;exitDy=0;exitPerimeter=0;entryPerimeter=0;" parent="1" source="60" target="30" edge="1">
                    <mxGeometry width="160" relative="1" as="geometry">
                        <mxPoint x="2030.9166666666665" y="2013" as="sourcePoint"/>
                        <mxPoint x="2038" y="2098" as="targetPoint"/>
                        <Array as="points">
                            <mxPoint x="1827" y="2545"/>
                        </Array>
                    </mxGeometry>
                </mxCell>
                <mxCell id="37" value="Use" style="endArrow=open;endSize=12;dashed=1;html=1;entryX=0.501;entryY=1;entryDx=0;entryDy=0;exitX=0.001;exitY=0.848;exitDx=0;exitDy=0;exitPerimeter=0;entryPerimeter=0;" parent="1" source="15" target="28" edge="1">
                    <mxGeometry x="-0.1018" y="-2" width="160" relative="1" as="geometry">
                        <mxPoint x="2238" y="1113" as="sourcePoint"/>
                        <mxPoint x="1718" y="843" as="targetPoint"/>
                        <Array as="points">
                            <mxPoint x="1803" y="2185"/>
                        </Array>
                        <mxPoint as="offset"/>
                    </mxGeometry>
                </mxCell>
                <mxCell id="130" value="Use" style="endArrow=open;endSize=12;dashed=1;html=1;elbow=vertical;entryX=0.498;entryY=1.057;entryDx=0;entryDy=0;entryPerimeter=0;exitX=-0.007;exitY=0.906;exitDx=0;exitDy=0;exitPerimeter=0;" parent="1" source="72" target="33" edge="1">
                    <mxGeometry width="160" relative="1" as="geometry">
                        <mxPoint x="1968" y="3543" as="sourcePoint"/>
                        <mxPoint x="2128" y="3543" as="targetPoint"/>
                        <Array as="points">
                            <mxPoint x="1803" y="3653"/>
                        </Array>
                    </mxGeometry>
                </mxCell>
                <mxCell id="131" value="Use" style="endArrow=open;endSize=12;dashed=1;html=1;elbow=vertical;entryX=0.571;entryY=1.025;entryDx=0;entryDy=0;exitX=-0.004;exitY=0.62;exitDx=0;exitDy=0;exitPerimeter=0;entryPerimeter=0;" parent="1" source="72" target="35" edge="1">
                    <mxGeometry x="0.3364" width="160" relative="1" as="geometry">
                        <mxPoint x="1950.48" y="3664.164" as="sourcePoint"/>
                        <mxPoint x="1812.6000000000004" y="3626.078" as="targetPoint"/>
                        <Array as="points">
                            <mxPoint x="1918" y="3627"/>
                            <mxPoint x="1918" y="3513"/>
                            <mxPoint x="1818" y="3513"/>
                        </Array>
                        <mxPoint as="offset"/>
                    </mxGeometry>
                </mxCell>
                <mxCell id="132" value="" style="endArrow=diamondThin;endFill=0;endSize=24;html=1;elbow=vertical;entryX=1;entryY=0.5;entryDx=0;entryDy=0;exitX=-0.002;exitY=0.388;exitDx=0;exitDy=0;exitPerimeter=0;" parent="1" source="17" target="141" edge="1">
                    <mxGeometry width="160" relative="1" as="geometry">
                        <mxPoint x="2048" y="2843" as="sourcePoint"/>
                        <mxPoint x="1678" y="2267" as="targetPoint"/>
                    </mxGeometry>
                </mxCell>
                <mxCell id="133" value="" style="endArrow=diamondThin;endFill=1;endSize=24;html=1;elbow=vertical;entryX=1;entryY=0.28;entryDx=0;entryDy=0;entryPerimeter=0;exitX=0;exitY=0.5;exitDx=0;exitDy=0;" parent="1" source="143" target="113" edge="1">
                    <mxGeometry width="160" relative="1" as="geometry">
                        <mxPoint x="1298" y="2475" as="sourcePoint"/>
                        <mxPoint x="1248" y="2873" as="targetPoint"/>
                        <Array as="points">
                            <mxPoint x="1178" y="2475"/>
                            <mxPoint x="1178" y="2763"/>
                            <mxPoint x="1138" y="2763"/>
                        </Array>
                    </mxGeometry>
                </mxCell>
                <mxCell id="134" value="" style="endArrow=diamondThin;endFill=1;endSize=24;html=1;elbow=vertical;exitX=0;exitY=0.5;exitDx=0;exitDy=0;entryX=1.002;entryY=0.049;entryDx=0;entryDy=0;entryPerimeter=0;" parent="1" source="139" target="113" edge="1">
                    <mxGeometry width="160" relative="1" as="geometry">
                        <mxPoint x="1298" y="2150.9999999999995" as="sourcePoint"/>
                        <mxPoint x="958.7800000000002" y="2752.96" as="targetPoint"/>
                        <Array as="points">
                            <mxPoint x="1138" y="2151"/>
                            <mxPoint x="1138" y="2743"/>
                        </Array>
                    </mxGeometry>
                </mxCell>
                <mxCell id="135" value="" style="endArrow=diamondThin;endFill=1;endSize=24;html=1;elbow=vertical;entryX=1.001;entryY=0.526;entryDx=0;entryDy=0;entryPerimeter=0;" parent="1" source="147" target="113" edge="1">
                    <mxGeometry width="160" relative="1" as="geometry">
                        <mxPoint x="1298" y="2901" as="sourcePoint"/>
                        <mxPoint x="1098" y="2763" as="targetPoint"/>
                        <Array as="points">
                            <mxPoint x="1118" y="2901"/>
                            <mxPoint x="1118" y="2783"/>
                        </Array>
                    </mxGeometry>
                </mxCell>
                <mxCell id="136" value="" style="endArrow=diamondThin;endFill=1;endSize=24;html=1;elbow=vertical;entryX=1.001;entryY=0.767;entryDx=0;entryDy=0;entryPerimeter=0;exitX=-0.001;exitY=0.646;exitDx=0;exitDy=0;exitPerimeter=0;" parent="1" source="151" target="113" edge="1">
                    <mxGeometry width="160" relative="1" as="geometry">
                        <mxPoint x="1298" y="3281" as="sourcePoint"/>
                        <mxPoint x="959.3400000000001" y="2812.752" as="targetPoint"/>
                        <Array as="points">
                            <mxPoint x="1108" y="3283"/>
                            <mxPoint x="1108" y="2803"/>
                        </Array>
                    </mxGeometry>
                </mxCell>
                <mxCell id="137" value="" style="endArrow=diamondThin;endFill=1;endSize=24;html=1;elbow=vertical;entryX=1.003;entryY=0.998;entryDx=0;entryDy=0;entryPerimeter=0;exitX=0;exitY=0.5;exitDx=0;exitDy=0;" parent="1" source="155" target="113" edge="1">
                    <mxGeometry width="160" relative="1" as="geometry">
                        <mxPoint x="1288" y="3601" as="sourcePoint"/>
                        <mxPoint x="969.1699999999998" y="2822.668" as="targetPoint"/>
                        <Array as="points">
                            <mxPoint x="1088" y="3601"/>
                            <mxPoint x="1088" y="2823"/>
                        </Array>
                    </mxGeometry>
                </mxCell>
                <mxCell id="138" value="IngredientManager" style="swimlane;fontStyle=1;align=center;verticalAlign=top;childLayout=stackLayout;horizontal=1;startSize=26;horizontalStack=0;resizeParent=1;resizeParentMax=0;resizeLast=0;collapsible=1;marginBottom=0;" parent="1" vertex="1">
                    <mxGeometry x="1298" y="2103" width="380" height="250" as="geometry"/>
                </mxCell>
                <mxCell id="139" value="- ingredients: dict[str, Ingredient]&#10;- repo: IngredientRepository" style="text;strokeColor=none;fillColor=none;align=left;verticalAlign=top;spacingLeft=4;spacingRight=4;overflow=hidden;rotatable=0;points=[[0,0.5],[1,0.5]];portConstraint=eastwest;" parent="138" vertex="1">
                    <mxGeometry y="26" width="380" height="44" as="geometry"/>
                </mxCell>
                <mxCell id="140" value="" style="line;strokeWidth=1;fillColor=none;align=left;verticalAlign=middle;spacingTop=-1;spacingLeft=3;spacingRight=3;rotatable=0;labelPosition=right;points=[];portConstraint=eastwest;strokeColor=inherit;" parent="138" vertex="1">
                    <mxGeometry y="70" width="380" height="8" as="geometry"/>
                </mxCell>
                <mxCell id="141" value="+ __int__(self): None&#10;+ __str__(self)&#10;+ save_to_db(self): None&#10;+ read_from_db(self): None&#10;+ get_ingredient_by_name(self,name): Ingredient&#10;+ add_ingredient(self, Ingredient): None&#10;+ add_quantity(self, ingredientName, NewQuantity)&#10;+ remove_quantity(self, ingredientName: str, NewQuantity: int)&#10;+ delete_ingredient(self, ingredientName: str): bool&#10;+ check_reorder_levels(self)&#10;+ display()" style="text;strokeColor=none;fillColor=none;align=left;verticalAlign=top;spacingLeft=4;spacingRight=4;overflow=hidden;rotatable=0;points=[[0,0.5],[1,0.5]];portConstraint=eastwest;" parent="138" vertex="1">
                    <mxGeometry y="78" width="380" height="172" as="geometry"/>
                </mxCell>
                <mxCell id="142" value="SideDishManager" style="swimlane;fontStyle=1;align=center;verticalAlign=top;childLayout=stackLayout;horizontal=1;startSize=26;horizontalStack=0;resizeParent=1;resizeParentMax=0;resizeLast=0;collapsible=1;marginBottom=0;" parent="1" vertex="1">
                    <mxGeometry x="1298" y="2427" width="450" height="280" as="geometry"/>
                </mxCell>
                <mxCell id="143" value="- sideDishList: list[SideDish]&#10;- repo: SideDishRepository" style="text;strokeColor=none;fillColor=none;align=left;verticalAlign=top;spacingLeft=4;spacingRight=4;overflow=hidden;rotatable=0;points=[[0,0.5],[1,0.5]];portConstraint=eastwest;" parent="142" vertex="1">
                    <mxGeometry y="26" width="450" height="44" as="geometry"/>
                </mxCell>
                <mxCell id="144" value="" style="line;strokeWidth=1;fillColor=none;align=left;verticalAlign=middle;spacingTop=-1;spacingLeft=3;spacingRight=3;rotatable=0;labelPosition=right;points=[];portConstraint=eastwest;strokeColor=inherit;" parent="142" vertex="1">
                    <mxGeometry y="70" width="450" height="8" as="geometry"/>
                </mxCell>
                <mxCell id="145" value="+ __int__(self): None&#10;+ __str__(self)&#10;+ save_to_db(self): None&#10;+ read_from_db(self): None&#10;+ add_dish(self,sideDish): None&#10;+ remove_dish(self,name): bool&#10;+ get_sideDish_by_name(self,name): None|SideDish&#10;+ add_quantity(self,sideDishName,NewQuantity): bool&#10;+ remove_quantity(self,sideDishName,NewQuantity): bool&#10;+ update_sideDish(self,exitingDish,name,quantity,description,reorder_level):None&#10;+ list_dish(self): list[str]&#10;+ check_reorder_levels(self): None&#10;+ display()" style="text;strokeColor=none;fillColor=none;align=left;verticalAlign=top;spacingLeft=4;spacingRight=4;overflow=hidden;rotatable=0;points=[[0,0.5],[1,0.5]];portConstraint=eastwest;" parent="142" vertex="1">
                    <mxGeometry y="78" width="450" height="202" as="geometry"/>
                </mxCell>
                <mxCell id="146" value="OrderManager" style="swimlane;fontStyle=1;align=center;verticalAlign=top;childLayout=stackLayout;horizontal=1;startSize=26;horizontalStack=0;resizeParent=1;resizeParentMax=0;resizeLast=0;collapsible=1;marginBottom=0;" parent="1" vertex="1">
                    <mxGeometry x="1298" y="2834" width="450" height="270" as="geometry"/>
                </mxCell>
                <mxCell id="147" value="- orderList: list[Order]&#10;- sideDishManager: SideDishManager&#10;- sideDishManager: SideDishManager&#10;- ingredientManager: IngredientManager&#10;- repo = OrderRepository" style="text;strokeColor=none;fillColor=none;align=left;verticalAlign=top;spacingLeft=4;spacingRight=4;overflow=hidden;rotatable=0;points=[[0,0.5],[1,0.5]];portConstraint=eastwest;" parent="146" vertex="1">
                    <mxGeometry y="26" width="450" height="84" as="geometry"/>
                </mxCell>
                <mxCell id="148" value="" style="line;strokeWidth=1;fillColor=none;align=left;verticalAlign=middle;spacingTop=-1;spacingLeft=3;spacingRight=3;rotatable=0;labelPosition=right;points=[];portConstraint=eastwest;strokeColor=inherit;" parent="146" vertex="1">
                    <mxGeometry y="110" width="450" height="8" as="geometry"/>
                </mxCell>
                <mxCell id="149" value="+ __int__(self): None&#10;+ __str__(self)&#10;+ save_to_db(self): None&#10;+ read_from_db(self): None&#10;+ getLastOrderId(self): int&#10;+ add_order(self,newOrder): bool&#10;+ remove_order(self,order_id): bool&#10;+ get_order_by_name(self,name): list[Order]&#10;+ get_order_by_order_id(self,id): list[Order]&#10;+ display()" style="text;strokeColor=none;fillColor=none;align=left;verticalAlign=top;spacingLeft=4;spacingRight=4;overflow=hidden;rotatable=0;points=[[0,0.5],[1,0.5]];portConstraint=eastwest;" parent="146" vertex="1">
                    <mxGeometry y="118" width="450" height="152" as="geometry"/>
                </mxCell>
                <mxCell id="150" value="RecipeManager" style="swimlane;fontStyle=1;align=center;verticalAlign=top;childLayout=stackLayout;horizontal=1;startSize=26;horizontalStack=0;resizeParent=1;resizeParentMax=0;resizeLast=0;collapsible=1;marginBottom=0;" parent="1" vertex="1">
                    <mxGeometry x="1298" y="3228" width="380" height="230" as="geometry"/>
                </mxCell>
                <mxCell id="151" value="- recipeList: list[Recipe]&#10;- repo: RecipeRepository" style="text;strokeColor=none;fillColor=none;align=left;verticalAlign=top;spacingLeft=4;spacingRight=4;overflow=hidden;rotatable=0;points=[[0,0.5],[1,0.5]];portConstraint=eastwest;" parent="150" vertex="1">
                    <mxGeometry y="26" width="380" height="44" as="geometry"/>
                </mxCell>
                <mxCell id="152" value="" style="line;strokeWidth=1;fillColor=none;align=left;verticalAlign=middle;spacingTop=-1;spacingLeft=3;spacingRight=3;rotatable=0;labelPosition=right;points=[];portConstraint=eastwest;strokeColor=inherit;" parent="150" vertex="1">
                    <mxGeometry y="70" width="380" height="8" as="geometry"/>
                </mxCell>
                <mxCell id="153" value="+ __int__(self): None&#10;+ __str__(self)&#10;+ save_to_db(self): None&#10;+ read_from_db(self): None&#10;+ add_recipe(self,recipe): bool&#10;+ remove_recipe(self, recipe_name): bool&#10;+ get_recipe_by_name(self, name): Recipe&#10;+ update_recipe(self, recipe, newName, newIngredients)&#10;+ list_recipe(self): list[str]&#10;+ display()" style="text;strokeColor=none;fillColor=none;align=left;verticalAlign=top;spacingLeft=4;spacingRight=4;overflow=hidden;rotatable=0;points=[[0,0.5],[1,0.5]];portConstraint=eastwest;" parent="150" vertex="1">
                    <mxGeometry y="78" width="380" height="152" as="geometry"/>
                </mxCell>
                <mxCell id="154" value="PizzaManager" style="swimlane;fontStyle=1;align=center;verticalAlign=top;childLayout=stackLayout;horizontal=1;startSize=26;horizontalStack=0;resizeParent=1;resizeParentMax=0;resizeLast=0;collapsible=1;marginBottom=0;" parent="1" vertex="1">
                    <mxGeometry x="1298" y="3553" width="380" height="240" as="geometry"/>
                </mxCell>
                <mxCell id="155" value="- pizzaList: list[Pizza]&#10;- repo: PizzaRepository" style="text;strokeColor=none;fillColor=none;align=left;verticalAlign=top;spacingLeft=4;spacingRight=4;overflow=hidden;rotatable=0;points=[[0,0.5],[1,0.5]];portConstraint=eastwest;" parent="154" vertex="1">
                    <mxGeometry y="26" width="380" height="44" as="geometry"/>
                </mxCell>
                <mxCell id="156" value="" style="line;strokeWidth=1;fillColor=none;align=left;verticalAlign=middle;spacingTop=-1;spacingLeft=3;spacingRight=3;rotatable=0;labelPosition=right;points=[];portConstraint=eastwest;strokeColor=inherit;" parent="154" vertex="1">
                    <mxGeometry y="70" width="380" height="8" as="geometry"/>
                </mxCell>
                <mxCell id="157" value="+ __int__(self): None&#10;+ __str__(self)&#10;+ save_to_db(self): None&#10;+ read_from_db(self): None&#10;+ add_new_pizza(self,pizza): none&#10;+ remove_pizza(self,pizza): bool&#10;+ search_by_name(self,name): Optional[Pizza]&#10;+ update_pizza(self,name,newPizza): none&#10;+ get_pizzaList(self): list[Pizza]&#10;+ get_pizza_by_category(self,category): list[Pizza]&#10;+ display()" style="text;strokeColor=none;fillColor=none;align=left;verticalAlign=top;spacingLeft=4;spacingRight=4;overflow=hidden;rotatable=0;points=[[0,0.5],[1,0.5]];portConstraint=eastwest;" parent="154" vertex="1">
                    <mxGeometry y="78" width="380" height="162" as="geometry"/>
                </mxCell>
                <mxCell id="158" value="IngredientRepository" style="swimlane;fontStyle=1;align=center;verticalAlign=top;childLayout=stackLayout;horizontal=1;startSize=26;horizontalStack=0;resizeParent=1;resizeParentMax=0;resizeLast=0;collapsible=1;marginBottom=0;" parent="1" vertex="1">
                    <mxGeometry x="2517" y="2123" width="380" height="160" as="geometry"/>
                </mxCell>
                <mxCell id="159" value="- filename: str = &quot;IngredientManagerData.json&quot;" style="text;strokeColor=none;fillColor=none;align=left;verticalAlign=top;spacingLeft=4;spacingRight=4;overflow=hidden;rotatable=0;points=[[0,0.5],[1,0.5]];portConstraint=eastwest;" parent="158" vertex="1">
                    <mxGeometry y="26" width="380" height="34" as="geometry"/>
                </mxCell>
                <mxCell id="160" value="" style="line;strokeWidth=1;fillColor=none;align=left;verticalAlign=middle;spacingTop=-1;spacingLeft=3;spacingRight=3;rotatable=0;labelPosition=right;points=[];portConstraint=eastwest;strokeColor=inherit;" parent="158" vertex="1">
                    <mxGeometry y="60" width="380" height="8" as="geometry"/>
                </mxCell>
                <mxCell id="161" value="+ __int__(self): None&#10;+ __str__(self): str&#10;+ create_file(self): None&#10;+ save_items(self): None&#10;+ get_items(self)" style="text;strokeColor=none;fillColor=none;align=left;verticalAlign=top;spacingLeft=4;spacingRight=4;overflow=hidden;rotatable=0;points=[[0,0.5],[1,0.5]];portConstraint=eastwest;" parent="158" vertex="1">
                    <mxGeometry y="68" width="380" height="92" as="geometry"/>
                </mxCell>
                <mxCell id="162" value="SideDishRepository" style="swimlane;fontStyle=1;align=center;verticalAlign=top;childLayout=stackLayout;horizontal=1;startSize=26;horizontalStack=0;resizeParent=1;resizeParentMax=0;resizeLast=0;collapsible=1;marginBottom=0;" parent="1" vertex="1">
                    <mxGeometry x="2517" y="2487" width="380" height="160" as="geometry"/>
                </mxCell>
                <mxCell id="163" value="- filename: str = &quot;SideDishManagerData.json&quot;" style="text;strokeColor=none;fillColor=none;align=left;verticalAlign=top;spacingLeft=4;spacingRight=4;overflow=hidden;rotatable=0;points=[[0,0.5],[1,0.5]];portConstraint=eastwest;" parent="162" vertex="1">
                    <mxGeometry y="26" width="380" height="34" as="geometry"/>
                </mxCell>
                <mxCell id="164" value="" style="line;strokeWidth=1;fillColor=none;align=left;verticalAlign=middle;spacingTop=-1;spacingLeft=3;spacingRight=3;rotatable=0;labelPosition=right;points=[];portConstraint=eastwest;strokeColor=inherit;" parent="162" vertex="1">
                    <mxGeometry y="60" width="380" height="8" as="geometry"/>
                </mxCell>
                <mxCell id="165" value="+ __int__(self): None&#10;+ __str__(self): str&#10;+ create_file(self): None&#10;+ save_items(self): None&#10;+ get_items(self)" style="text;strokeColor=none;fillColor=none;align=left;verticalAlign=top;spacingLeft=4;spacingRight=4;overflow=hidden;rotatable=0;points=[[0,0.5],[1,0.5]];portConstraint=eastwest;" parent="162" vertex="1">
                    <mxGeometry y="68" width="380" height="92" as="geometry"/>
                </mxCell>
                <mxCell id="167" value="OrderRepository" style="swimlane;fontStyle=1;align=center;verticalAlign=top;childLayout=stackLayout;horizontal=1;startSize=26;horizontalStack=0;resizeParent=1;resizeParentMax=0;resizeLast=0;collapsible=1;marginBottom=0;" parent="1" vertex="1">
                    <mxGeometry x="2517" y="2888" width="380" height="160" as="geometry"/>
                </mxCell>
                <mxCell id="168" value="- filename: str = &quot;OrderManagerData.json&quot;" style="text;strokeColor=none;fillColor=none;align=left;verticalAlign=top;spacingLeft=4;spacingRight=4;overflow=hidden;rotatable=0;points=[[0,0.5],[1,0.5]];portConstraint=eastwest;" parent="167" vertex="1">
                    <mxGeometry y="26" width="380" height="34" as="geometry"/>
                </mxCell>
                <mxCell id="169" value="" style="line;strokeWidth=1;fillColor=none;align=left;verticalAlign=middle;spacingTop=-1;spacingLeft=3;spacingRight=3;rotatable=0;labelPosition=right;points=[];portConstraint=eastwest;strokeColor=inherit;" parent="167" vertex="1">
                    <mxGeometry y="60" width="380" height="8" as="geometry"/>
                </mxCell>
                <mxCell id="170" value="+ __int__(self): None&#10;+ __str__(self): str&#10;+ create_file(self): None&#10;+ save_items(self): None&#10;+ get_items(self)" style="text;strokeColor=none;fillColor=none;align=left;verticalAlign=top;spacingLeft=4;spacingRight=4;overflow=hidden;rotatable=0;points=[[0,0.5],[1,0.5]];portConstraint=eastwest;" parent="167" vertex="1">
                    <mxGeometry y="68" width="380" height="92" as="geometry"/>
                </mxCell>
                <mxCell id="171" value="RecipeRepository" style="swimlane;fontStyle=1;align=center;verticalAlign=top;childLayout=stackLayout;horizontal=1;startSize=26;horizontalStack=0;resizeParent=1;resizeParentMax=0;resizeLast=0;collapsible=1;marginBottom=0;" parent="1" vertex="1">
                    <mxGeometry x="2517" y="3268" width="380" height="160" as="geometry"/>
                </mxCell>
                <mxCell id="172" value="- filename: str = &quot;RecipeManagerData.json&quot;" style="text;strokeColor=none;fillColor=none;align=left;verticalAlign=top;spacingLeft=4;spacingRight=4;overflow=hidden;rotatable=0;points=[[0,0.5],[1,0.5]];portConstraint=eastwest;" parent="171" vertex="1">
                    <mxGeometry y="26" width="380" height="34" as="geometry"/>
                </mxCell>
                <mxCell id="173" value="" style="line;strokeWidth=1;fillColor=none;align=left;verticalAlign=middle;spacingTop=-1;spacingLeft=3;spacingRight=3;rotatable=0;labelPosition=right;points=[];portConstraint=eastwest;strokeColor=inherit;" parent="171" vertex="1">
                    <mxGeometry y="60" width="380" height="8" as="geometry"/>
                </mxCell>
                <mxCell id="174" value="+ __int__(self): None&#10;+ __str__(self): str&#10;+ create_file(self): None&#10;+ save_items(self): None&#10;+ get_items(self)" style="text;strokeColor=none;fillColor=none;align=left;verticalAlign=top;spacingLeft=4;spacingRight=4;overflow=hidden;rotatable=0;points=[[0,0.5],[1,0.5]];portConstraint=eastwest;" parent="171" vertex="1">
                    <mxGeometry y="68" width="380" height="92" as="geometry"/>
                </mxCell>
                <mxCell id="175" value="PizzaRepository" style="swimlane;fontStyle=1;align=center;verticalAlign=top;childLayout=stackLayout;horizontal=1;startSize=26;horizontalStack=0;resizeParent=1;resizeParentMax=0;resizeLast=0;collapsible=1;marginBottom=0;" parent="1" vertex="1">
                    <mxGeometry x="2517" y="3598" width="380" height="160" as="geometry"/>
                </mxCell>
                <mxCell id="176" value="- filename: str = &quot;PizzaManagerData.json&quot;" style="text;strokeColor=none;fillColor=none;align=left;verticalAlign=top;spacingLeft=4;spacingRight=4;overflow=hidden;rotatable=0;points=[[0,0.5],[1,0.5]];portConstraint=eastwest;" parent="175" vertex="1">
                    <mxGeometry y="26" width="380" height="34" as="geometry"/>
                </mxCell>
                <mxCell id="177" value="" style="line;strokeWidth=1;fillColor=none;align=left;verticalAlign=middle;spacingTop=-1;spacingLeft=3;spacingRight=3;rotatable=0;labelPosition=right;points=[];portConstraint=eastwest;strokeColor=inherit;" parent="175" vertex="1">
                    <mxGeometry y="60" width="380" height="8" as="geometry"/>
                </mxCell>
                <mxCell id="178" value="+ __int__(self): None&#10;+ __str__(self): str&#10;+ create_file(self): None&#10;+ save_items(self): None&#10;+ get_items(self)" style="text;strokeColor=none;fillColor=none;align=left;verticalAlign=top;spacingLeft=4;spacingRight=4;overflow=hidden;rotatable=0;points=[[0,0.5],[1,0.5]];portConstraint=eastwest;" parent="175" vertex="1">
                    <mxGeometry y="68" width="380" height="92" as="geometry"/>
                </mxCell>
            </root>
        </mxGraphModel>
    </diagram>
</mxfile>